<svg xmlns="http://www.w3.org/2000/svg" id="prefix__img_profile" width="66" height="66" viewBox="0 0 66 66">
    <defs>
        <style>
            .prefix__cls-2{fill:#f9dca4}.prefix__cls-2,.prefix__cls-7,.prefix__cls-8{fill-rule:evenodd}.prefix__cls-7{fill:#fff}.prefix__cls-8{fill:#3dbc93}
        </style>
    </defs>
    <g id="prefix___ÎÓÈ_1" data-name="—ÎÓÈ 1">
        <circle id="prefix__타원_548" cx="33" cy="33" r="33" fill="#485a69" data-name="타원 548"/>
        <path id="prefix__패스_12830" d="M23.242 38.592l15.92.209v12.918L23.255 51.6l-.013-13.006z" class="prefix__cls-2" data-name="패스 12830" transform="translate(2.128 3.33)"/>
        <path id="prefix__패스_12831" fill="#d5e1ed" fill-rule="evenodd" d="M57.678 51.993A35.187 35.187 0 0 1 33.013 61.8a37.211 37.211 0 0 1-4.189-.237 35.738 35.738 0 0 1-12.2-3.644 33.607 33.607 0 0 1-8.583-6.225l1.4-3.1 15.212-6.212c0 4.535 2.01 6.152 8.707 6.244 8.27.113 8.674-1.606 8.674-6.28l13.972 6.281z" data-name="패스 12831" transform="translate(0 4.2)"/>
        <path id="prefix__패스_12832" fill-rule="evenodd" d="M39.165 38.778v3.4c-2.75 4.914-14 5-15.923-3.59z" data-name="패스 12832" opacity="0.11" transform="translate(2.128 2.955)"/>
        <path id="prefix__패스_12833" fill="#ffe8be" fill-rule="evenodd" d="M31.129 8.432c21.281 0 12.987 35.266 0 35.266-12.267 0-21.281-35.266 0-35.266z" data-name="패스 12833" transform="translate(2.14)"/>
        <path id="prefix__패스_12834" d="M18.365 24.045c-3.07 1.34-.46 7.687 1.472 7.658a31.973 31.973 0 0 1-1.472-7.658z" class="prefix__cls-2" data-name="패스 12834" transform="translate(1.209 1.865)"/>
        <path id="prefix__패스_12835" d="M44.14 24.045c3.07 1.339.46 7.687-1.471 7.658a31.992 31.992 0 0 0 1.471-7.658z" class="prefix__cls-2" data-name="패스 12835" transform="translate(3.042 1.865)"/>
        <path id="prefix__패스_12836" fill="#ecbe6a" fill-rule="evenodd" d="M43.409 29.584s1.066-8.716-2.015-11.752c-1.34 3.528-7.5 4.733-7.5 4.733a16.62 16.62 0 0 0 3.215-2.947c-1.652.715-6.876 2.858-11.61 1.161a23.715 23.715 0 0 0 3.615-2.679s-4.287 2.322-8.44 1.742C17.683 22.074 19.014 29 19.014 29 15 18.417 18.7 6.3 31.39 6.226c12.358-.069 16.17 11.847 12.018 23.358z" data-name="패스 12836" transform="translate(2.142)"/>
        <path id="prefix__패스_12837" d="M23.255 42.179a17.39 17.39 0 0 0 7.958 6.446l-5.182 5.349L19.44 43.87z" class="prefix__cls-7" data-name="패스 12837" transform="translate(1.632 4.2)"/>
        <path id="prefix__패스_12838" d="M39.16 42.179a17.391 17.391 0 0 1-7.96 6.446l5.181 5.349 6.592-10.1z" class="prefix__cls-7" data-name="패스 12838" transform="translate(2.62 4.2)"/>
        <path id="prefix__패스_12839" d="M33.366 61.7q-1.239.1-2.5.1-.954 0-1.9-.056L30 52.985h2.41z" class="prefix__cls-8" data-name="패스 12839" transform="translate(2.12 4.2)"/>
        <path id="prefix__패스_12840" d="M28.472 51.456l2.737-2.817 2.736 2.817-2.736 2.817z" class="prefix__cls-8" data-name="패스 12840" transform="translate(2.123 4.2)"/>
    </g>
</svg>
